# xmcd
#
# Track frame offsets: 
#        150
#        16724
#        43581
#        60097
#        74847
#        86551
#        108238
#        123667
#        139837
#        154920
#        175187
#        188439
#        198236
#        211151
#        228377
#
# Disc length: 3240 seconds
#
# Revision: 0
# Processed by: cddbd v1.5.2PL0 Copyright (c) Steve Scherf et al.
# Submitted via: ExactAudioCopy v1.3
#
DISCID=c40ca60f
DTITLE=Podobni zvěři - Podobni zvěři
DYEAR=2017
DGENRE=Country
TTITLE0=Podobni zvěři
TTITLE1=Devadesát procent strádání
TTITLE2=Jachta bílá
TTITLE3=Půlnoční expres
TTITLE4=Až ti zas život
TTITLE5=Pěšáci
TTITLE6=Javorový list
TTITLE7=O marné touze
TTITLE8=Života bído
TTITLE9=Tak se podívej táto
TTITLE10=Zavírací hodina
TTITLE11=Originály
TTITLE12=Pirátská
TTITLE13=Zlaté dny
TTITLE14=Hvězda
EXTD=
EXTT0=
EXTT1=
EXTT2=
EXTT3=
EXTT4=
EXTT5=
EXTT6=
EXTT7=
EXTT8=
EXTT9=
EXTT10=
EXTT11=
EXTT12=
EXTT13=
EXTT14=
PLAYORDER=
